<!DOCTYPE svg PUBLIC "-//W3C//DTD SVG 1.1//EN" "http://www.w3.org/Graphics/SVG/1.1/DTD/svg11.dtd">
<!-- Uploaded to: SVG Repo, www.svgrepo.com, Transformed by: SVG Repo Mixer Tools -->
<svg width="800px" height="800px" viewBox="-102.4 -102.4 1228.80 1228.80" class="icon" version="1.1" xmlns="http://www.w3.org/2000/svg" fill="#000000" transform="rotate(0)">
<g id="SVGRepo_bgCarrier" stroke-width="0">
<path transform="translate(-102.4, -102.4), scale(38.4)" d="M16,29.141347317823342C18.770250193407854,29.103149228359282,21.71733338788205,30.01280840268132,24.12823077387653,28.64777396270556C26.574049061211248,27.262967535219538,27.909800349693075,24.51685898298584,28.847421410381436,21.867220765639715C29.731399758522915,19.369172339954186,29.939901149336727,16.656926706345807,29.279509119779966,14.09069483366735C28.65891092357131,11.679098690833328,26.85932470707434,9.884509613911861,25.270391133923756,7.967160355851588C23.64435568490758,6.005040658444073,22.354284962610027,3.4001082435049934,19.888136033630932,2.7582247271976676C17.430782815798587,2.118630538162087,15.09699738466043,3.9145176146665075,12.679060288422004,4.6899180031582635C10.330897935759785,5.442942555917953,7.521193473328124,5.390198600621958,5.896407004445665,7.245186832944626C4.2701606446766185,9.10184179530657,4.667117628486598,11.87788489607676,4.252032712001975,14.31089730542289C3.8241048387945646,16.819188463377543,2.8323766375328283,19.26871447375111,3.422868985770247,21.743783277726944C4.080412756805597,24.499900405740714,5.284098312263831,27.437415434561455,7.726425520455528,28.873933183245683C10.15398765491831,30.301766472942976,13.183928612683186,29.18017722100172,16,29.141347317823342" fill="#7ed0ec" strokewidth="0"/>
</g>
<g id="SVGRepo_tracerCarrier" stroke-linecap="round" stroke-linejoin="round"/>
<g id="SVGRepo_iconCarrier">
<path d="M512 512m-480 0a480 480 0 1 0 960 0 480 480 0 1 0-960 0Z" fill="#E5F1FF"/>
<path d="M512 179.2c-96 102.4-262.4 236.8-262.4 384s115.2 262.4 262.4 262.4 262.4-115.2 262.4-262.4-160-281.6-262.4-384z" fill="#9FC8FE"/>
<path d="M512 684.8c-57.6 0-102.4-44.8-102.4-108.8 0-57.6 64-102.4 102.4-147.2 38.4 44.8 102.4 89.6 102.4 147.2 0 57.6-44.8 108.8-102.4 108.8z" fill="#72AEFD"/>
</g>
</svg>